<?xml version="1.0" encoding="UTF-8"?>
<svg id="Layer_1" xmlns="http://www.w3.org/2000/svg" version="1.1" xmlns:xlink="http://www.w3.org/1999/xlink" viewBox="0 0 131 83">
  <!-- Generator: Adobe Illustrator 29.8.1, SVG Export Plug-In . SVG Version: 2.1.1 Build 2)  -->
  <defs>
    <style>
      .st0 {
        fill: url(#linear-gradient2);
      }

      .st1 {
        fill: #273b8e;
      }

      .st2 {
        fill: url(#linear-gradient1);
      }

      .st3 {
        fill: #3b54a3;
      }

      .st4 {
        fill: url(#linear-gradient);
      }
    </style>
    <linearGradient id="linear-gradient" x1="193.82" y1="-49.02" x2="201.51" y2="-49.02" gradientTransform="translate(-43.18 -2.15) scale(.81 -.81)" gradientUnits="userSpaceOnUse">
      <stop offset="0" stop-color="#55a3d9"/>
      <stop offset=".29" stop-color="#59a9d9"/>
      <stop offset=".68" stop-color="#64badb"/>
      <stop offset=".98" stop-color="#70cddd"/>
    </linearGradient>
    <linearGradient id="linear-gradient1" x1="193.82" y1="-24.44" x2="201.5" y2="-24.44" gradientTransform="translate(-43.18 -2.15) scale(.81 -.81)" gradientUnits="userSpaceOnUse">
      <stop offset="0" stop-color="#55a3d9"/>
      <stop offset=".29" stop-color="#59a9d9"/>
      <stop offset=".68" stop-color="#64badb"/>
      <stop offset=".98" stop-color="#70cddd"/>
    </linearGradient>
    <linearGradient id="linear-gradient2" x1="155.64" y1="-44.12" x2="186.93" y2="-44.12" gradientTransform="translate(-43.18 -2.15) scale(.81 -.81)" gradientUnits="userSpaceOnUse">
      <stop offset="0" stop-color="#55a3d9"/>
      <stop offset=".29" stop-color="#59a9d9"/>
      <stop offset=".68" stop-color="#64badb"/>
      <stop offset=".98" stop-color="#70cddd"/>
    </linearGradient>
  </defs>
  <g>
    <path class="st3" d="M39.46,14.62c-3.52,0-6.44,1.29-8.71,3.81-2.28-2.53-5.21-3.81-8.72-3.81-3.27,0-6.08,1.16-8.38,3.46s-3.47,5.13-3.47,8.39v23.34c0,.86.32,1.61.91,2.18.61.6,1.34.91,2.18.91h.07c.82,0,1.58-.32,2.17-.9.62-.59.93-1.33.93-2.19v-23.34c0-1.55.55-2.88,1.64-3.97s2.42-1.64,3.95-1.64,2.86.55,3.95,1.64,1.64,2.43,1.64,3.97v23.34c0,.86.32,1.61.91,2.18.61.6,1.35.91,2.21.91h.05c.85,0,1.61-.32,2.16-.9.62-.59.93-1.33.93-2.19v-23.34c0-1.55.55-2.88,1.64-3.97s2.38-1.64,3.95-1.64,2.88.54,3.97,1.64c1.08,1.08,1.64,2.43,1.64,3.97v23.34c0,.85.32,1.61.9,2.17.59.62,1.33.93,2.19.93h.07c.86,0,1.6-.3,2.21-.91.59-.59.89-1.33.89-2.18v-23.34c0-3.27-1.16-6.08-3.47-8.39s-5.12-3.46-8.38-3.46Z"/>
    <path class="st3" d="M72.92,36.6c0-2.73-.98-5.03-2.91-6.82,1.64-1.68,2.46-3.72,2.46-6.19s-.89-4.61-2.63-6.35c-1.76-1.74-3.9-2.62-6.36-2.62h-7.48c-.72,0-1.36.26-1.89.77-.52.52-.79,1.16-.79,1.9v.04c0,.74.27,1.38.8,1.92.52.51,1.15.76,1.87.76h7.48c1,0,1.8.34,2.52,1.07.71.72,1.04,1.52,1.04,2.52s-.34,1.83-1.04,2.53c-.72.71-1.52,1.04-2.52,1.04l-6.61.02c-.74,0-1.38.26-1.92.78-.5.53-.75,1.16-.75,1.89v.04c0,.74.26,1.38.77,1.89s1.16.79,1.91.79h6.62c1.12,0,2.06.39,2.85,1.18.79.8,1.17,1.73,1.17,2.86s-.38,2.06-1.16,2.85c-.8.78-1.73,1.16-2.86,1.16h-7.48c-.73,0-1.37.27-1.89.79-.52.52-.79,1.16-.79,1.91v.04c0,.74.28,1.39.79,1.89.53.52,1.16.79,1.89.79h7.48-.02c2.59,0,4.85-.95,6.68-2.78,1.84-1.84,2.77-4.08,2.77-6.66Z"/>
  </g>
  <path class="st4" d="M119.9,23.49c-.6-.59-1.34-.89-2.17-.89h-.07c-.83,0-1.56.29-2.18.89-.61.61-.91,1.35-.91,2.21v24.12c0,.85.32,1.61.91,2.18.61.61,1.34.91,2.18.91h.07c.83,0,1.58-.32,2.17-.9.62-.59.93-1.33.93-2.19v-24.12c0-.86-.31-1.6-.92-2.21h0Z"/>
  <path class="st2" d="M120.81,17.75c0-1.73-1.4-3.12-3.12-3.12s-3.12,1.4-3.12,3.12,1.4,3.12,3.12,3.12,3.12-1.4,3.12-3.12Z"/>
  <path class="st0" d="M105.22,18.34c-2.47-2.46-5.51-3.71-9.01-3.71s-6.51,1.25-8.99,3.71c-2.48,2.48-3.73,5.51-3.73,9.01v22.47c0,.85.32,1.61.91,2.18.61.61,1.34.91,2.18.91h.07c.83,0,1.58-.32,2.16-.9.62-.59.93-1.33.93-2.19v-10.69h12.95v10.69c0,.85.32,1.61.91,2.18.61.61,1.34.91,2.18.91h.07c.83,0,1.58-.32,2.16-.9.62-.59.93-1.33.93-2.19v-22.47c0-3.5-1.25-6.54-3.73-9.02h0ZM89.74,27.36c0-1.78.64-3.32,1.88-4.58,1.26-1.26,2.8-1.91,4.58-1.91s3.34.64,4.6,1.91c1.25,1.26,1.89,2.8,1.89,4.58v5.54h-12.95v-5.54Z"/>
  <path class="st1" d="M23.66,63.69l-3.91,7.92h-1.93l-3.9-7.92v9.12h-3.23v-14.49h4.37l3.73,7.96,3.75-7.96h4.35v14.49h-3.23v-9.12Z"/>
  <path class="st1" d="M42.18,61.12v11.69h-3.23v-11.69h-4.1v-2.8h11.45v2.8h-4.11Z"/>
  <path class="st1" d="M51.41,66.8v6.01h-3.11v-15.38h3.11v5.47c.94-.95,2-1.43,3.16-1.43s2.15.41,2.96,1.25c.8.83,1.2,1.94,1.2,3.31v6.78h-3.11v-6.1c0-1.71-.62-2.57-1.89-2.57-.62,0-1.16.23-1.63.68-.46.45-.69,1.11-.69,1.98v.02Z"/>
  <path class="st1" d="M67.47,64.39c-.93,0-1.62.33-2.07.98-.46.66-.69,1.52-.69,2.61v4.83h-3.11v-11.15h3.11v1.47c.4-.45.91-.84,1.51-1.16.6-.32,1.21-.48,1.83-.5l.02,2.92h-.6Z"/>
  <path class="st1" d="M79.84,71.19c-1.25,1.19-2.73,1.78-4.43,1.78s-3.09-.52-4.2-1.56c-1.11-1.04-1.66-2.44-1.66-4.2s.56-3.15,1.7-4.18c1.12-1.03,2.46-1.55,3.98-1.55s2.84.46,3.91,1.39c1.07.93,1.6,2.2,1.6,3.82v1.66h-8.12c.1.61.41,1.11.95,1.49.54.39,1.15.58,1.82.58,1.09,0,1.99-.37,2.7-1.1l1.74,1.89h0ZM76.86,64.57c-.43-.36-.95-.54-1.56-.54s-1.18.19-1.69.56c-.52.38-.81.88-.89,1.52h4.89c-.07-.66-.32-1.17-.75-1.53h0Z"/>
  <path class="st1" d="M92.72,71.19c-1.25,1.19-2.73,1.78-4.43,1.78s-3.09-.52-4.2-1.56c-1.11-1.04-1.66-2.44-1.66-4.2s.56-3.15,1.7-4.18c1.12-1.03,2.46-1.55,3.99-1.55s2.83.46,3.91,1.39c1.07.93,1.6,2.2,1.6,3.82v1.66h-8.12c.1.61.41,1.11.95,1.49.54.39,1.14.58,1.82.58,1.09,0,2-.37,2.7-1.1l1.74,1.89h0ZM89.73,64.57c-.43-.36-.95-.54-1.56-.54s-1.18.19-1.69.56c-.51.38-.8.88-.89,1.52h4.89c-.07-.66-.32-1.17-.75-1.53h0Z"/>
  <path class="st1" d="M112.1,72.8l-1.35-3.13h-6.07l-1.35,3.13h-3.45l6.26-14.49h3.12l6.26,14.49h-3.45.02ZM107.72,62.63l-1.82,4.21h3.63l-1.8-4.21h0Z"/>
  <path class="st1" d="M117.27,58.32h3.23v14.49h-3.23v-14.49Z"/>
</svg>