<svg width="57" height="21" viewBox="0 0 57 21" fill="none" xmlns="http://www.w3.org/2000/svg">
<g clip-path="url(#clip0_1022_4384)">
<mask id="mask0_1022_4384" style="mask-type:luminance" maskUnits="userSpaceOnUse" x="0" y="0" width="57" height="21">
<path d="M57 0H0V21H57V0Z" fill="white"/>
</mask>
<g mask="url(#mask0_1022_4384)">
<path d="M32.2956 12.2138C32.2956 13.6319 31.8134 14.9661 30.6998 15.0142C29.3907 15.0857 29.2586 14.05 29.2586 12.5673V7.15366H31.1975L31.2059 6.8153H29.267L29.2586 4.67651H27.9495L27.958 6.81668H26.9794L26.9709 7.15503H27.9495V12.328C27.9495 14.3265 28.8607 15.3141 30.3159 15.3141C32.0763 15.3141 32.5417 13.83 32.5417 12.2083L32.373 12.2152H32.2956V12.2138Z" fill="#EC2526"/>
</g>
<mask id="mask1_1022_4384" style="mask-type:luminance" maskUnits="userSpaceOnUse" x="0" y="0" width="57" height="21">
<path d="M57 0H0V21H57V0Z" fill="white"/>
</mask>
<g mask="url(#mask1_1022_4384)">
<path d="M37.8383 12.2138C37.8383 13.6319 37.356 14.9661 36.2424 15.0142C34.9334 15.0857 34.8012 14.05 34.8012 12.5673V7.15366H36.7402L36.7486 6.8153H34.8097L34.8012 4.67651H33.4922L33.5006 6.81668H32.522L32.5136 7.15503H33.4922V12.328C33.4922 14.3265 34.4033 15.3141 35.8586 15.3141C37.619 15.3141 38.0844 13.83 38.0844 12.2083L37.9156 12.2152H37.8383V12.2138Z" fill="#EC2526"/>
</g>
<mask id="mask2_1022_4384" style="mask-type:luminance" maskUnits="userSpaceOnUse" x="0" y="0" width="57" height="21">
<path d="M57 0H0V21H57V0Z" fill="white"/>
</mask>
<g mask="url(#mask2_1022_4384)">
<path d="M18.214 7.48227C17.8526 7.12879 17.4252 6.83032 16.7292 6.83032C15.468 6.83032 14.7551 7.76011 14.4711 9.02C14.4444 9.14104 14.45 9.14104 14.45 9.01725L14.3867 6.94861H13.0425V15.3112H14.3867V12.4902C14.4064 10.6595 14.5765 7.76286 16.0262 7.52904C17.1201 7.37362 17.7866 8.3598 18.2154 9.23457V7.48227H18.214Z" fill="white"/>
</g>
<mask id="mask3_1022_4384" style="mask-type:luminance" maskUnits="userSpaceOnUse" x="0" y="0" width="57" height="21">
<path d="M57 0H0V21H57V0Z" fill="white"/>
</mask>
<g mask="url(#mask3_1022_4384)">
<path d="M23.4684 15.3057C25.4439 15.1984 26.4225 13.8409 26.954 12.8478L26.6939 12.6635C26.4254 13.171 25.5958 14.7445 23.969 14.9192C22.2831 15.1118 20.9699 14.204 20.3568 12.3747C20.0756 11.5439 20.025 10.5949 20.2261 9.66646H26.7389C26.5055 7.56068 24.5834 6.74506 23.1886 6.83446C21.3256 6.85234 18.7483 8.22914 18.8285 11.262C18.8931 14.1201 21.3158 15.4061 23.4684 15.3057ZM22.4251 7.13018C24.0449 6.81383 25.3047 7.82614 25.5185 9.34599L20.302 9.35424C20.6184 8.17 21.2933 7.3585 22.4251 7.13018Z" fill="white"/>
</g>
<mask id="mask4_1022_4384" style="mask-type:luminance" maskUnits="userSpaceOnUse" x="0" y="0" width="57" height="21">
<path d="M57 0H0V21H57V0Z" fill="white"/>
</mask>
<g mask="url(#mask4_1022_4384)">
<path d="M40.2666 7.00366H38.9702V15.3126H40.2666V7.00366Z" fill="white"/>
</g>
<mask id="mask5_1022_4384" style="mask-type:luminance" maskUnits="userSpaceOnUse" x="0" y="0" width="57" height="21">
<path d="M57 0H0V21H57V0Z" fill="white"/>
</mask>
<g mask="url(#mask5_1022_4384)">
<path d="M39.6198 6.23887C40.0585 6.23887 40.4043 5.89227 40.4043 5.46451C40.4043 5.04225 40.0556 4.69702 39.6198 4.69702C39.1839 4.69702 38.8282 5.04225 38.8282 5.46451C38.8282 5.89089 39.1839 6.23887 39.6198 6.23887Z" fill="white"/>
</g>
<mask id="mask6_1022_4384" style="mask-type:luminance" maskUnits="userSpaceOnUse" x="0" y="0" width="57" height="21">
<path d="M57 0H0V21H57V0Z" fill="white"/>
</mask>
<g mask="url(#mask6_1022_4384)">
<path d="M42.5078 15.3113H43.8168V7.11785H44.9304V6.97893H43.8168V5.80707C43.8168 4.20332 44.4467 3.36569 45.6081 3.36569C46.598 3.36569 47.1675 4.03002 47.429 4.88416L47.5443 4.83189C47.2448 3.87597 46.702 3.19238 45.3747 3.19238C43.9799 3.19238 42.5064 4.0479 42.5064 6.14817V6.97893H41.5278V7.11647H42.5064V15.3113H42.5078Z" fill="white"/>
</g>
<mask id="mask7_1022_4384" style="mask-type:luminance" maskUnits="userSpaceOnUse" x="0" y="0" width="57" height="21">
<path d="M57 0H0V21H57V0Z" fill="white"/>
</mask>
<g mask="url(#mask7_1022_4384)">
<path d="M52.7439 6.95816L52.4388 6.95679L49.8418 13.358L49.8165 13.3649L47.1787 6.95816H45.8697L49.2484 15.2671C48.2037 17.1638 46.2859 17.1198 45.9864 16.8461V18.0592C47.346 18.5269 48.6776 17.7786 49.7855 14.4762C50.3283 16.516 49.5676 18.4994 47.8635 19.3851C46.0679 20.3245 43.8098 19.8184 42.6062 18.2078C42.5725 18.139 42.5486 18.0689 42.5317 17.996C42.4516 17.7085 42.3953 17.0345 42.6287 16.7815C42.6807 16.7251 42.8171 16.5751 42.7187 16.45C42.6343 16.3427 42.4628 16.3881 42.3841 16.428C42.2336 16.5036 42.1436 16.6123 42.0846 16.7264C42.0283 16.4967 41.9271 16.2753 41.7274 16.0965C41.3351 15.743 40.8585 15.5642 40.4536 15.6192C40.379 15.6302 40.3129 15.6674 40.2778 15.7224C40.2581 15.7526 40.2483 15.7856 40.2483 15.82C40.2426 15.8517 40.2441 15.8847 40.2553 15.9163C40.2764 15.9755 40.3242 16.025 40.379 16.0497C40.8023 16.2822 41.0891 16.6879 41.3155 17.0552C41.5953 17.4953 41.861 17.8859 42.1802 18.3219C42.2364 18.3962 42.3334 18.5131 42.3798 18.5626C43.2333 19.6217 44.5578 20.2517 45.9329 20.2517C45.9484 20.2517 45.9639 20.2517 45.9793 20.2517C46.7049 20.2448 47.4023 20.0687 48.0533 19.7304C50.0555 18.6878 50.8752 16.2244 50.0049 13.8669L50.0189 13.827V13.8257L50.0316 13.794L52.7439 6.95816Z" fill="white"/>
</g>
<mask id="mask8_1022_4384" style="mask-type:luminance" maskUnits="userSpaceOnUse" x="0" y="0" width="57" height="21">
<path d="M57 0H0V21H57V0Z" fill="white"/>
</mask>
<g mask="url(#mask8_1022_4384)">
<path d="M11.9838 6.85929C11.9838 4.45505 9.80722 3.38359 6.53533 3.38359H4.41219V9.97051C3.18611 9.74906 2.52245 8.94719 2.18078 8.31174C1.30059 6.70249 1.47916 4.51969 2.15969 3.33958C3.07644 1.73858 5.15037 1.14715 6.64219 1.40298C6.71249 1.42774 6.78139 1.45937 6.84747 1.49788C7.11322 1.6478 7.64189 2.08794 7.65736 2.42905C7.66158 2.50332 7.67423 2.70276 7.83452 2.72339C7.9695 2.74264 8.05809 2.60235 8.09042 2.51157C8.13964 2.3534 8.12417 2.21448 8.08199 2.09207C8.28727 2.21586 8.51786 2.30388 8.78923 2.29288C9.32353 2.27637 9.79034 2.07556 10.042 1.75371C10.0814 1.6987 10.0983 1.6313 10.0884 1.57078C10.0814 1.53502 10.0659 1.50338 10.042 1.47725C10.0252 1.44974 9.99985 1.42774 9.96891 1.41123C9.91267 1.38235 9.83955 1.3796 9.77769 1.40023C9.30385 1.52402 8.80892 1.43599 8.38851 1.33558C7.90342 1.2173 7.42817 1.12652 6.85872 1.02886C6.78561 1.01786 6.62813 0.998604 6.53814 0.997228C4.97883 0.781286 2.8346 1.36309 1.80958 3.14839C1.07844 4.41379 0.884401 6.76164 1.82786 8.50018C2.38466 9.53037 3.27047 10.1741 4.38829 10.3598L4.41359 10.3639V15.3127H5.72263V10.3529H6.53674C9.80722 10.3529 11.9838 9.26491 11.9838 6.85929ZM6.53533 9.99114H5.72122V3.69169H6.53533C9.5246 3.69169 10.6748 4.8498 10.6748 6.85792C10.6748 8.86879 9.5246 9.99114 6.53533 9.99114Z" fill="white"/>
</g>
</g>
<defs>
<clipPath id="clip0_1022_4384">
<rect width="57" height="21" fill="white"/>
</clipPath>
</defs>
</svg>
