<svg width="399" height="231" viewBox="0 0 399 231" fill="none" xmlns="http://www.w3.org/2000/svg">
<mask id="path-1-inside-1_1336_11477" fill="white">
<path d="M136.585 155H136.408C133.309 155 130.665 153.87 128.54 151.66C126.44 149.629 125.301 146.911 125.301 143.851V59.7028C125.301 54.1158 123.315 49.3033 119.419 45.3796C115.459 41.4052 110.791 39.4752 105.149 39.4752C99.6464 39.4752 94.8772 41.4687 90.9683 45.3796C87.0594 49.3033 85.0859 54.1158 85.0859 59.7028V143.839C85.0859 146.937 83.9727 149.603 81.7589 151.737C79.7348 153.844 77.0277 154.987 73.9789 154.987H73.8018C70.7278 154.987 68.0713 153.883 65.8954 151.686C63.7575 149.616 62.6063 146.899 62.6063 143.839V59.7028C62.6063 54.1158 60.6202 49.3033 56.7239 45.3796C52.815 41.456 48.0458 39.4752 42.543 39.4752C37.0401 39.4752 32.2709 41.4687 28.362 45.3796C24.453 49.3033 22.4796 54.1158 22.4796 59.7028V143.839C22.4796 146.95 21.3664 149.603 19.1526 151.737C17.04 153.857 14.3454 154.987 11.3726 154.987H11.107C8.09619 154.987 5.46493 153.883 3.27643 151.686C1.13853 149.629 0 146.911 0 143.839V59.7028C0 47.9573 4.18725 37.799 12.4479 29.4947C20.7212 21.203 30.8414 17 42.543 17C55.1553 17 65.6803 21.6093 73.8777 30.7264C82.0245 21.6093 92.5369 17 105.149 17C116.851 17 126.971 21.203 135.244 29.4947C143.505 37.7863 147.692 47.9446 147.692 59.7028V143.839C147.692 146.924 146.617 149.565 144.492 151.699C142.316 153.883 139.659 155 136.585 155ZM105.149 35.6658C111.841 35.6658 117.395 37.9641 122.101 42.6877C126.743 47.3478 129.096 53.0745 129.096 59.7028V143.839C129.096 145.87 129.817 147.597 131.222 148.956C132.676 150.467 134.359 151.178 136.408 151.178H136.585C138.647 151.178 140.355 150.467 141.81 148.994C143.214 147.584 143.897 145.896 143.897 143.839V59.7028C143.897 48.9985 140.077 39.7418 132.55 32.1993C125.036 24.6441 115.813 20.8093 105.149 20.8093C92.967 20.8093 82.9354 25.5329 75.3578 34.8531L73.8904 36.6562L72.423 34.8658C64.7822 25.5329 54.7378 20.8093 42.543 20.8093C31.8788 20.8093 22.6567 24.6441 15.1298 32.1993C7.61548 39.7418 3.79509 48.9985 3.79509 59.7028V143.839C3.79509 145.896 4.49086 147.572 5.94564 148.969C7.43837 150.467 9.10821 151.178 11.107 151.178H11.3726C13.3461 151.178 15.0665 150.454 16.496 149.019C17.9761 147.584 18.6845 145.896 18.6845 143.839V59.7028C18.6845 53.0745 21.0374 47.3478 25.6801 42.6877C30.3228 38.0276 35.9901 35.6658 42.543 35.6658C49.0958 35.6658 54.7631 38.0276 59.4058 42.6877C64.0485 47.3478 66.4014 53.0745 66.4014 59.7028V143.839C66.4014 145.896 67.0972 147.584 68.552 148.969C70.0447 150.467 71.7525 151.178 73.8018 151.178H73.9789C76.003 151.178 77.7108 150.454 79.077 149.032C80.5824 147.572 81.2908 145.896 81.2908 143.826V59.7028C81.2908 53.0745 83.6438 47.3478 88.2864 42.6877C92.9291 38.0276 98.6091 35.6658 105.149 35.6658Z"/>
<path d="M343.488 155H343.222C340.202 155 337.564 153.895 335.369 151.699C333.225 149.629 332.071 146.911 332.071 143.839V105.301H285.439V143.851C285.439 146.962 284.323 149.616 282.103 151.749C279.984 153.87 277.282 155 274.301 155H274.035C271.015 155 268.377 153.895 266.182 151.699C264.038 149.629 262.884 146.911 262.884 143.851V62.8646C262.884 50.2429 267.413 39.3101 276.331 30.3835C285.299 21.495 296.184 17 308.73 17C321.339 17 332.249 21.495 341.167 30.3708C350.097 39.3101 354.626 50.2429 354.626 62.8646V143.851C354.626 146.962 353.497 149.616 351.29 151.749C349.184 153.857 346.469 155 343.488 155ZM281.646 101.491H335.889V143.851C335.889 145.908 336.587 147.597 338.046 148.981C339.543 150.48 341.23 151.191 343.234 151.191H343.501C345.505 151.191 347.18 150.48 348.638 149.032C350.123 147.597 350.833 145.908 350.833 143.851V62.8646C350.833 51.2968 346.685 41.2656 338.49 33.0755C330.308 24.9361 320.286 20.8093 308.73 20.8093C297.224 20.8093 287.24 24.9361 279.045 33.0755C270.863 41.2656 266.715 51.2841 266.715 62.8646V143.851C266.715 145.908 267.425 147.584 268.872 148.981C270.368 150.48 272.043 151.191 274.06 151.191H274.326C276.305 151.191 278.031 150.467 279.464 149.032C280.948 147.597 281.659 145.908 281.659 143.851V101.491H281.646ZM335.889 86.6349H281.646V62.8646C281.646 55.4236 284.297 48.9604 289.524 43.6654C294.826 38.3577 301.283 35.6658 308.717 35.6658C316.214 35.6658 322.696 38.3451 327.986 43.6527C333.225 48.9604 335.877 55.4236 335.877 62.8646V86.6349H335.889ZM285.452 82.8255H332.084V62.8646C332.084 56.4649 329.8 50.9032 325.297 46.3447C320.755 41.7989 315.174 39.4879 308.73 39.4879C302.336 39.4879 296.792 41.7989 292.238 46.3574C287.748 50.9032 285.464 56.4649 285.464 62.8646V82.8255H285.452Z"/>
<path d="M386.023 155H385.761C382.786 155 380.185 153.897 378.035 151.703C375.922 149.637 374.784 146.923 374.784 143.855V57.0544C374.784 53.9734 375.872 51.3108 378.035 49.13C380.223 46.9999 382.811 45.9222 385.761 45.9222H386.023C388.974 45.9222 391.562 46.9872 393.712 49.0792L393.737 49.1046C395.9 51.2981 397 53.9734 397 57.0544V143.868C397 146.974 395.9 149.624 393.712 151.754C391.624 153.859 388.961 155 386.023 155ZM385.761 49.7132C383.786 49.7132 382.11 50.4105 380.66 51.8306C379.248 53.276 378.535 54.9877 378.535 57.0417V143.855C378.535 145.909 379.223 147.583 380.66 148.977C382.135 150.474 383.798 151.184 385.761 151.184H386.023C387.999 151.184 389.649 150.474 391.087 149.028C392.549 147.595 393.249 145.909 393.249 143.855V57.0544C393.249 55.0004 392.549 53.276 391.099 51.8052C389.661 50.3979 387.999 49.7259 386.023 49.7259H385.761V49.7132Z"/>
</mask>
<path d="M136.585 155H136.408C133.309 155 130.665 153.87 128.54 151.66C126.44 149.629 125.301 146.911 125.301 143.851V59.7028C125.301 54.1158 123.315 49.3033 119.419 45.3796C115.459 41.4052 110.791 39.4752 105.149 39.4752C99.6464 39.4752 94.8772 41.4687 90.9683 45.3796C87.0594 49.3033 85.0859 54.1158 85.0859 59.7028V143.839C85.0859 146.937 83.9727 149.603 81.7589 151.737C79.7348 153.844 77.0277 154.987 73.9789 154.987H73.8018C70.7278 154.987 68.0713 153.883 65.8954 151.686C63.7575 149.616 62.6063 146.899 62.6063 143.839V59.7028C62.6063 54.1158 60.6202 49.3033 56.7239 45.3796C52.815 41.456 48.0458 39.4752 42.543 39.4752C37.0401 39.4752 32.2709 41.4687 28.362 45.3796C24.453 49.3033 22.4796 54.1158 22.4796 59.7028V143.839C22.4796 146.95 21.3664 149.603 19.1526 151.737C17.04 153.857 14.3454 154.987 11.3726 154.987H11.107C8.09619 154.987 5.46493 153.883 3.27643 151.686C1.13853 149.629 0 146.911 0 143.839V59.7028C0 47.9573 4.18725 37.799 12.4479 29.4947C20.7212 21.203 30.8414 17 42.543 17C55.1553 17 65.6803 21.6093 73.8777 30.7264C82.0245 21.6093 92.5369 17 105.149 17C116.851 17 126.971 21.203 135.244 29.4947C143.505 37.7863 147.692 47.9446 147.692 59.7028V143.839C147.692 146.924 146.617 149.565 144.492 151.699C142.316 153.883 139.659 155 136.585 155ZM105.149 35.6658C111.841 35.6658 117.395 37.9641 122.101 42.6877C126.743 47.3478 129.096 53.0745 129.096 59.7028V143.839C129.096 145.87 129.817 147.597 131.222 148.956C132.676 150.467 134.359 151.178 136.408 151.178H136.585C138.647 151.178 140.355 150.467 141.81 148.994C143.214 147.584 143.897 145.896 143.897 143.839V59.7028C143.897 48.9985 140.077 39.7418 132.55 32.1993C125.036 24.6441 115.813 20.8093 105.149 20.8093C92.967 20.8093 82.9354 25.5329 75.3578 34.8531L73.8904 36.6562L72.423 34.8658C64.7822 25.5329 54.7378 20.8093 42.543 20.8093C31.8788 20.8093 22.6567 24.6441 15.1298 32.1993C7.61548 39.7418 3.79509 48.9985 3.79509 59.7028V143.839C3.79509 145.896 4.49086 147.572 5.94564 148.969C7.43837 150.467 9.10821 151.178 11.107 151.178H11.3726C13.3461 151.178 15.0665 150.454 16.496 149.019C17.9761 147.584 18.6845 145.896 18.6845 143.839V59.7028C18.6845 53.0745 21.0374 47.3478 25.6801 42.6877C30.3228 38.0276 35.9901 35.6658 42.543 35.6658C49.0958 35.6658 54.7631 38.0276 59.4058 42.6877C64.0485 47.3478 66.4014 53.0745 66.4014 59.7028V143.839C66.4014 145.896 67.0972 147.584 68.552 148.969C70.0447 150.467 71.7525 151.178 73.8018 151.178H73.9789C76.003 151.178 77.7108 150.454 79.077 149.032C80.5824 147.572 81.2908 145.896 81.2908 143.826V59.7028C81.2908 53.0745 83.6438 47.3478 88.2864 42.6877C92.9291 38.0276 98.6091 35.6658 105.149 35.6658Z" fill="url(#paint0_linear_1336_11477)"/>
<path d="M343.488 155H343.222C340.202 155 337.564 153.895 335.369 151.699C333.225 149.629 332.071 146.911 332.071 143.839V105.301H285.439V143.851C285.439 146.962 284.323 149.616 282.103 151.749C279.984 153.87 277.282 155 274.301 155H274.035C271.015 155 268.377 153.895 266.182 151.699C264.038 149.629 262.884 146.911 262.884 143.851V62.8646C262.884 50.2429 267.413 39.3101 276.331 30.3835C285.299 21.495 296.184 17 308.73 17C321.339 17 332.249 21.495 341.167 30.3708C350.097 39.3101 354.626 50.2429 354.626 62.8646V143.851C354.626 146.962 353.497 149.616 351.29 151.749C349.184 153.857 346.469 155 343.488 155ZM281.646 101.491H335.889V143.851C335.889 145.908 336.587 147.597 338.046 148.981C339.543 150.48 341.23 151.191 343.234 151.191H343.501C345.505 151.191 347.18 150.48 348.638 149.032C350.123 147.597 350.833 145.908 350.833 143.851V62.8646C350.833 51.2968 346.685 41.2656 338.49 33.0755C330.308 24.9361 320.286 20.8093 308.73 20.8093C297.224 20.8093 287.24 24.9361 279.045 33.0755C270.863 41.2656 266.715 51.2841 266.715 62.8646V143.851C266.715 145.908 267.425 147.584 268.872 148.981C270.368 150.48 272.043 151.191 274.06 151.191H274.326C276.305 151.191 278.031 150.467 279.464 149.032C280.948 147.597 281.659 145.908 281.659 143.851V101.491H281.646ZM335.889 86.6349H281.646V62.8646C281.646 55.4236 284.297 48.9604 289.524 43.6654C294.826 38.3577 301.283 35.6658 308.717 35.6658C316.214 35.6658 322.696 38.3451 327.986 43.6527C333.225 48.9604 335.877 55.4236 335.877 62.8646V86.6349H335.889ZM285.452 82.8255H332.084V62.8646C332.084 56.4649 329.8 50.9032 325.297 46.3447C320.755 41.7989 315.174 39.4879 308.73 39.4879C302.336 39.4879 296.792 41.7989 292.238 46.3574C287.748 50.9032 285.464 56.4649 285.464 62.8646V82.8255H285.452Z" fill="url(#paint1_linear_1336_11477)"/>
<path d="M386.023 155H385.761C382.786 155 380.185 153.897 378.035 151.703C375.922 149.637 374.784 146.923 374.784 143.855V57.0544C374.784 53.9734 375.872 51.3108 378.035 49.13C380.223 46.9999 382.811 45.9222 385.761 45.9222H386.023C388.974 45.9222 391.562 46.9872 393.712 49.0792L393.737 49.1046C395.9 51.2981 397 53.9734 397 57.0544V143.868C397 146.974 395.9 149.624 393.712 151.754C391.624 153.859 388.961 155 386.023 155ZM385.761 49.7132C383.786 49.7132 382.11 50.4105 380.66 51.8306C379.248 53.276 378.535 54.9877 378.535 57.0417V143.855C378.535 145.909 379.223 147.583 380.66 148.977C382.135 150.474 383.798 151.184 385.761 151.184H386.023C387.999 151.184 389.649 150.474 391.087 149.028C392.549 147.595 393.249 145.909 393.249 143.855V57.0544C393.249 55.0004 392.549 53.276 391.099 51.8052C389.661 50.3979 387.999 49.7259 386.023 49.7259H385.761V49.7132Z" fill="url(#paint2_linear_1336_11477)"/>
<path d="M136.585 155H136.408C133.309 155 130.665 153.87 128.54 151.66C126.44 149.629 125.301 146.911 125.301 143.851V59.7028C125.301 54.1158 123.315 49.3033 119.419 45.3796C115.459 41.4052 110.791 39.4752 105.149 39.4752C99.6464 39.4752 94.8772 41.4687 90.9683 45.3796C87.0594 49.3033 85.0859 54.1158 85.0859 59.7028V143.839C85.0859 146.937 83.9727 149.603 81.7589 151.737C79.7348 153.844 77.0277 154.987 73.9789 154.987H73.8018C70.7278 154.987 68.0713 153.883 65.8954 151.686C63.7575 149.616 62.6063 146.899 62.6063 143.839V59.7028C62.6063 54.1158 60.6202 49.3033 56.7239 45.3796C52.815 41.456 48.0458 39.4752 42.543 39.4752C37.0401 39.4752 32.2709 41.4687 28.362 45.3796C24.453 49.3033 22.4796 54.1158 22.4796 59.7028V143.839C22.4796 146.95 21.3664 149.603 19.1526 151.737C17.04 153.857 14.3454 154.987 11.3726 154.987H11.107C8.09619 154.987 5.46493 153.883 3.27643 151.686C1.13853 149.629 0 146.911 0 143.839V59.7028C0 47.9573 4.18725 37.799 12.4479 29.4947C20.7212 21.203 30.8414 17 42.543 17C55.1553 17 65.6803 21.6093 73.8777 30.7264C82.0245 21.6093 92.5369 17 105.149 17C116.851 17 126.971 21.203 135.244 29.4947C143.505 37.7863 147.692 47.9446 147.692 59.7028V143.839C147.692 146.924 146.617 149.565 144.492 151.699C142.316 153.883 139.659 155 136.585 155ZM105.149 35.6658C111.841 35.6658 117.395 37.9641 122.101 42.6877C126.743 47.3478 129.096 53.0745 129.096 59.7028V143.839C129.096 145.87 129.817 147.597 131.222 148.956C132.676 150.467 134.359 151.178 136.408 151.178H136.585C138.647 151.178 140.355 150.467 141.81 148.994C143.214 147.584 143.897 145.896 143.897 143.839V59.7028C143.897 48.9985 140.077 39.7418 132.55 32.1993C125.036 24.6441 115.813 20.8093 105.149 20.8093C92.967 20.8093 82.9354 25.5329 75.3578 34.8531L73.8904 36.6562L72.423 34.8658C64.7822 25.5329 54.7378 20.8093 42.543 20.8093C31.8788 20.8093 22.6567 24.6441 15.1298 32.1993C7.61548 39.7418 3.79509 48.9985 3.79509 59.7028V143.839C3.79509 145.896 4.49086 147.572 5.94564 148.969C7.43837 150.467 9.10821 151.178 11.107 151.178H11.3726C13.3461 151.178 15.0665 150.454 16.496 149.019C17.9761 147.584 18.6845 145.896 18.6845 143.839V59.7028C18.6845 53.0745 21.0374 47.3478 25.6801 42.6877C30.3228 38.0276 35.9901 35.6658 42.543 35.6658C49.0958 35.6658 54.7631 38.0276 59.4058 42.6877C64.0485 47.3478 66.4014 53.0745 66.4014 59.7028V143.839C66.4014 145.896 67.0972 147.584 68.552 148.969C70.0447 150.467 71.7525 151.178 73.8018 151.178H73.9789C76.003 151.178 77.7108 150.454 79.077 149.032C80.5824 147.572 81.2908 145.896 81.2908 143.826V59.7028C81.2908 53.0745 83.6438 47.3478 88.2864 42.6877C92.9291 38.0276 98.6091 35.6658 105.149 35.6658Z" stroke="url(#paint3_linear_1336_11477)" stroke-width="2" mask="url(#path-1-inside-1_1336_11477)"/>
<path d="M343.488 155H343.222C340.202 155 337.564 153.895 335.369 151.699C333.225 149.629 332.071 146.911 332.071 143.839V105.301H285.439V143.851C285.439 146.962 284.323 149.616 282.103 151.749C279.984 153.87 277.282 155 274.301 155H274.035C271.015 155 268.377 153.895 266.182 151.699C264.038 149.629 262.884 146.911 262.884 143.851V62.8646C262.884 50.2429 267.413 39.3101 276.331 30.3835C285.299 21.495 296.184 17 308.73 17C321.339 17 332.249 21.495 341.167 30.3708C350.097 39.3101 354.626 50.2429 354.626 62.8646V143.851C354.626 146.962 353.497 149.616 351.29 151.749C349.184 153.857 346.469 155 343.488 155ZM281.646 101.491H335.889V143.851C335.889 145.908 336.587 147.597 338.046 148.981C339.543 150.48 341.23 151.191 343.234 151.191H343.501C345.505 151.191 347.18 150.48 348.638 149.032C350.123 147.597 350.833 145.908 350.833 143.851V62.8646C350.833 51.2968 346.685 41.2656 338.49 33.0755C330.308 24.9361 320.286 20.8093 308.73 20.8093C297.224 20.8093 287.24 24.9361 279.045 33.0755C270.863 41.2656 266.715 51.2841 266.715 62.8646V143.851C266.715 145.908 267.425 147.584 268.872 148.981C270.368 150.48 272.043 151.191 274.06 151.191H274.326C276.305 151.191 278.031 150.467 279.464 149.032C280.948 147.597 281.659 145.908 281.659 143.851V101.491H281.646ZM335.889 86.6349H281.646V62.8646C281.646 55.4236 284.297 48.9604 289.524 43.6654C294.826 38.3577 301.283 35.6658 308.717 35.6658C316.214 35.6658 322.696 38.3451 327.986 43.6527C333.225 48.9604 335.877 55.4236 335.877 62.8646V86.6349H335.889ZM285.452 82.8255H332.084V62.8646C332.084 56.4649 329.8 50.9032 325.297 46.3447C320.755 41.7989 315.174 39.4879 308.73 39.4879C302.336 39.4879 296.792 41.7989 292.238 46.3574C287.748 50.9032 285.464 56.4649 285.464 62.8646V82.8255H285.452Z" stroke="url(#paint4_linear_1336_11477)" stroke-width="2" mask="url(#path-1-inside-1_1336_11477)"/>
<path d="M386.023 155H385.761C382.786 155 380.185 153.897 378.035 151.703C375.922 149.637 374.784 146.923 374.784 143.855V57.0544C374.784 53.9734 375.872 51.3108 378.035 49.13C380.223 46.9999 382.811 45.9222 385.761 45.9222H386.023C388.974 45.9222 391.562 46.9872 393.712 49.0792L393.737 49.1046C395.9 51.2981 397 53.9734 397 57.0544V143.868C397 146.974 395.9 149.624 393.712 151.754C391.624 153.859 388.961 155 386.023 155ZM385.761 49.7132C383.786 49.7132 382.11 50.4105 380.66 51.8306C379.248 53.276 378.535 54.9877 378.535 57.0417V143.855C378.535 145.909 379.223 147.583 380.66 148.977C382.135 150.474 383.798 151.184 385.761 151.184H386.023C387.999 151.184 389.649 150.474 391.087 149.028C392.549 147.595 393.249 145.909 393.249 143.855V57.0544C393.249 55.0004 392.549 53.276 391.099 51.8052C389.661 50.3979 387.999 49.7259 386.023 49.7259H385.761V49.7132Z" stroke="url(#paint5_linear_1336_11477)" stroke-width="2" mask="url(#path-1-inside-1_1336_11477)"/>
<path d="M385.892 18.5C391.166 18.5 395.5 22.8833 395.5 28.3623C395.5 33.8413 391.166 38.2246 385.892 38.2246C380.618 38.2244 376.284 33.8412 376.284 28.3623C376.284 22.8834 380.618 18.5002 385.892 18.5Z" stroke="url(#paint6_linear_1336_11477)" stroke-width="3"/>
<mask id="path-3-inside-2_1336_11477" fill="white">
<path d="M191.15 130.21H164.304C161.701 130.21 159.413 129.245 157.542 127.353C155.697 125.563 154.699 123.214 154.699 120.561V120.421C154.699 117.755 155.659 115.444 157.542 113.553C159.426 111.661 161.701 110.696 164.304 110.696H191.15C195.182 110.696 198.531 109.325 201.4 106.494C204.193 103.65 205.558 100.285 205.558 96.2353C205.558 92.1853 204.193 88.8082 201.362 85.9389C198.518 83.0823 195.169 81.6858 191.15 81.6858H167.426C164.772 81.6858 162.472 80.7209 160.589 78.8419C158.756 77.001 157.821 74.7157 157.821 72.0495V71.9099C157.821 69.2691 158.743 66.9712 160.551 65.0795C162.497 63.1878 164.797 62.261 167.426 62.261L191.137 62.1848C194.752 62.1848 197.634 61.0041 200.187 58.4776C202.689 55.9511 203.915 52.9676 203.915 49.3492C203.915 45.7309 202.727 42.8489 200.161 40.2843C197.596 37.669 194.727 36.4502 191.137 36.4502H164.292C161.701 36.4502 159.438 35.5234 157.568 33.7078C155.647 31.7781 154.686 29.4674 154.686 26.8013V26.6489C154.686 23.9828 155.647 21.6721 157.53 19.7804C159.438 17.9268 161.713 17 164.292 17H191.137C199.985 17 207.669 20.1867 213.976 26.4585C220.232 32.7429 223.405 40.4494 223.405 49.3492C223.405 58.1094 220.447 65.6 214.595 71.6433C221.522 78.1055 225.035 86.3705 225.035 96.2353C225.035 105.554 221.699 113.641 215.114 120.256C208.541 126.858 200.477 130.21 191.15 130.21ZM164.304 114.505C162.712 114.505 161.385 115.076 160.222 116.244C159.059 117.412 158.49 118.783 158.49 120.421V120.561C158.49 122.198 159.047 123.532 160.197 124.636C161.385 125.829 162.724 126.401 164.304 126.401H191.15C199.428 126.401 206.595 123.417 212.447 117.552C218.286 111.686 221.256 104.513 221.256 96.2353C221.256 86.8403 217.679 79.0831 210.614 73.1795L208.946 71.7829L210.551 70.3102C216.58 64.7748 219.638 57.7158 219.638 49.3492C219.638 41.5031 216.845 34.7108 211.322 29.1627C205.748 23.6146 198.973 20.8088 191.15 20.8088H164.304C162.712 20.8088 161.372 21.3547 160.197 22.4973C159.059 23.64 158.49 25.0111 158.49 26.6489V26.7886C158.49 28.4263 159.059 29.7975 160.235 30.9782C161.372 32.0828 162.712 32.6287 164.304 32.6287H191.15C195.763 32.6287 199.593 34.2538 202.866 37.5928C206.127 40.8683 207.72 44.7152 207.72 49.3492C207.72 54.0213 206.127 57.8936 202.866 61.1691C199.593 64.4193 195.763 65.9809 191.15 65.9809L167.439 66.0571C165.796 66.0571 164.418 66.6157 163.23 67.7583C162.156 68.8756 161.612 70.2467 161.612 71.8972V72.0368C161.612 73.6746 162.156 75.0204 163.268 76.1376C164.431 77.3057 165.796 77.877 167.426 77.877H191.15C196.231 77.877 200.452 79.629 204.054 83.2474C207.619 86.8784 209.35 91.1188 209.35 96.2226C209.35 101.326 207.631 105.567 204.08 109.172C200.452 112.765 196.231 114.492 191.15 114.492H164.304V114.505Z"/>
</mask>
<path d="M157.542 127.353L161.098 123.837L161.061 123.8L161.024 123.764L157.542 127.353ZM201.4 106.494L204.912 110.053L204.94 110.025L204.967 109.997L201.4 106.494ZM201.362 85.9389L204.921 82.4271L204.914 82.4192L204.906 82.4113L201.362 85.9389ZM160.589 78.8419L157.045 82.3695L157.051 82.3754L157.057 82.3814L160.589 78.8419ZM160.551 65.0795L157.066 61.4939L156.999 61.5584L156.935 61.6254L160.551 65.0795ZM167.426 62.261V67.261H167.434L167.442 67.261L167.426 62.261ZM191.137 62.1848V57.1848H191.129L191.121 57.1848L191.137 62.1848ZM200.187 58.4776L203.704 62.0316L203.722 62.014L203.739 61.9963L200.187 58.4776ZM200.161 40.2843L196.592 43.7858L196.609 43.8033L196.627 43.8207L200.161 40.2843ZM157.568 33.7078L154.024 37.2354L154.055 37.2659L154.085 37.2958L157.568 33.7078ZM157.53 19.7804L154.046 16.1937L154.016 16.223L153.986 16.2528L157.53 19.7804ZM213.976 26.4585L217.52 22.9309L217.511 22.922L217.502 22.9131L213.976 26.4585ZM214.595 71.6433L211.003 68.1651L207.46 71.8243L211.184 75.2991L214.595 71.6433ZM215.114 120.256L211.57 116.728L215.114 120.256ZM164.304 114.505V119.505H169.304V114.505H164.304ZM160.197 124.636L163.74 121.108L163.701 121.069L163.66 121.03L160.197 124.636ZM212.447 117.552L215.986 121.083L215.99 121.079L212.447 117.552ZM210.614 73.1795L207.405 77.0135L207.408 77.0163L210.614 73.1795ZM208.946 71.7829L205.565 68.0987L201.362 71.9553L205.736 75.6169L208.946 71.7829ZM210.551 70.3102L213.931 73.9944L213.932 73.9932L210.551 70.3102ZM211.322 29.1627L214.865 25.6351L214.857 25.627L214.849 25.619L211.322 29.1627ZM160.197 22.4973L156.712 18.9121L156.682 18.9407L156.653 18.9697L160.197 22.4973ZM160.235 30.9782L156.691 34.5058L156.721 34.5358L156.751 34.5654L160.235 30.9782ZM202.866 37.5928L199.296 41.0931L199.309 41.1068L199.323 41.1204L202.866 37.5928ZM202.866 61.1691L206.389 64.7173L206.399 64.707L206.41 64.6967L202.866 61.1691ZM191.15 65.9809V60.9809H191.142L191.134 60.9809L191.15 65.9809ZM167.439 66.0571V71.0571H167.447L167.455 71.057L167.439 66.0571ZM163.23 67.7583L159.764 64.1545L159.694 64.2223L159.626 64.2927L163.23 67.7583ZM163.268 76.1376L166.811 72.61L163.268 76.1376ZM204.054 83.2474L207.623 79.7448L207.61 79.7322L207.598 79.7198L204.054 83.2474ZM204.08 109.172L207.598 112.725L207.62 112.703L207.642 112.681L204.08 109.172ZM164.304 114.492V109.492H159.304V114.492H164.304ZM191.15 130.21V125.21H164.304V130.21V135.21H191.15V130.21ZM164.304 130.21V125.21C163.066 125.21 162.05 124.8 161.098 123.837L157.542 127.353L153.987 130.869C156.776 133.689 160.336 135.21 164.304 135.21V130.21ZM157.542 127.353L161.024 123.764C160.162 122.928 159.699 121.879 159.699 120.561H154.699H149.699C149.699 124.549 151.233 128.198 154.061 130.942L157.542 127.353ZM154.699 120.561H159.699V120.421H154.699H149.699V120.561H154.699ZM154.699 120.421H159.699C159.699 119.087 160.129 118.042 161.086 117.08L157.542 113.553L153.999 110.025C151.19 112.847 149.699 116.423 149.699 120.421H154.699ZM157.542 113.553L161.086 117.08C162.063 116.099 163.075 115.696 164.304 115.696V110.696V105.696C160.326 105.696 156.789 107.223 153.999 110.025L157.542 113.553ZM164.304 110.696V115.696H191.15V110.696V105.696H164.304V110.696ZM191.15 110.696V115.696C196.493 115.696 201.105 113.809 204.912 110.053L201.4 106.494L197.888 102.935C195.957 104.84 193.87 105.696 191.15 105.696V110.696ZM201.4 106.494L204.967 109.997C208.694 106.203 210.558 101.574 210.558 96.2353H205.558H200.558C200.558 98.9966 199.693 101.096 197.833 102.99L201.4 106.494ZM205.558 96.2353H210.558C210.558 90.893 208.691 86.2478 204.921 82.4271L201.362 85.9389L197.803 89.4507C199.696 91.3686 200.558 93.4775 200.558 96.2353H205.558ZM201.362 85.9389L204.906 82.4113C201.128 78.6168 196.506 76.6858 191.15 76.6858V81.6858V86.6858C193.833 86.6858 195.909 87.5478 197.819 89.4665L201.362 85.9389ZM191.15 81.6858V76.6858H167.426V81.6858V86.6858H191.15V81.6858ZM167.426 81.6858V76.6858C166.116 76.6858 165.08 76.2603 164.12 75.3024L160.589 78.8419L157.057 82.3814C159.863 85.1814 163.428 86.6858 167.426 86.6858V81.6858ZM160.589 78.8419L164.132 75.3143C163.254 74.4319 162.821 73.4242 162.821 72.0495H157.821H152.821C152.821 76.0072 154.258 79.57 157.045 82.3695L160.589 78.8419ZM157.821 72.0495H162.821V71.9099H157.821H152.821V72.0495H157.821ZM157.821 71.9099H162.821C162.821 70.5509 163.251 69.4915 164.166 68.5335L160.551 65.0795L156.935 61.6254C154.236 64.4509 152.821 67.9873 152.821 71.9099H157.821ZM160.551 65.0795L164.035 68.6651C165.059 67.6706 166.113 67.261 167.426 67.261V62.261V57.261C163.482 57.261 159.935 58.705 157.066 61.4939L160.551 65.0795ZM167.426 62.261L167.442 67.261L191.153 67.1848L191.137 62.1848L191.121 57.1848L167.41 57.261L167.426 62.261ZM191.137 62.1848V67.1848C196.06 67.1848 200.208 65.4909 203.704 62.0316L200.187 58.4776L196.67 54.9236C195.059 56.5173 193.444 57.1848 191.137 57.1848V62.1848ZM200.187 58.4776L203.739 61.9963C207.179 58.5231 208.915 54.2708 208.915 49.3492H203.915H198.915C198.915 51.6644 198.199 53.3791 196.634 54.9589L200.187 58.4776ZM203.915 49.3492H208.915C208.915 44.4087 207.203 40.2533 203.696 36.748L200.161 40.2843L196.627 43.8207C198.251 45.4445 198.915 47.0531 198.915 49.3492H203.915ZM200.161 40.2843L203.731 36.7828C200.246 33.2311 196.1 31.4502 191.137 31.4502V36.4502V41.4502C193.353 41.4502 194.945 42.1068 196.592 43.7858L200.161 40.2843ZM191.137 36.4502V31.4502H164.292V36.4502V41.4502H191.137V36.4502ZM164.292 36.4502V31.4502C163.018 31.4502 162 31.0419 161.05 30.1199L157.568 33.7078L154.085 37.2958C156.877 40.0048 160.383 41.4502 164.292 41.4502V36.4502ZM157.568 33.7078L161.111 30.1802C160.106 29.1702 159.686 28.1209 159.686 26.8013H154.686H149.686C149.686 30.8139 151.188 34.386 154.024 37.2354L157.568 33.7078ZM154.686 26.8013H159.686V26.6489H154.686H149.686V26.8013H154.686ZM154.686 26.6489H159.686C159.686 25.3145 160.116 24.2695 161.073 23.308L157.53 19.7804L153.986 16.2528C151.177 19.0747 149.686 22.651 149.686 26.6489H154.686ZM157.53 19.7804L161.013 23.3672C162.009 22.4003 163.042 22 164.292 22V17V12C160.385 12 156.868 13.4533 154.046 16.1937L157.53 19.7804ZM164.292 17V22H191.137V17V12H164.292V17ZM191.137 17V22C198.653 22 205.073 24.6563 210.45 30.0039L213.976 26.4585L217.502 22.9131C210.265 15.717 201.316 12 191.137 12V17ZM213.976 26.4585L210.433 29.9861C215.752 35.3289 218.405 41.765 218.405 49.3492H223.405H228.405C228.405 39.1337 224.713 30.157 217.52 22.9309L213.976 26.4585ZM223.405 49.3492H218.405C218.405 56.8723 215.911 63.0974 211.003 68.1651L214.595 71.6433L218.187 75.1215C224.984 68.1026 228.405 59.3465 228.405 49.3492H223.405ZM214.595 71.6433L211.184 75.2991C217.053 80.7743 220.035 87.6949 220.035 96.2353H225.035H230.035C230.035 85.0462 225.99 75.4367 218.006 67.9874L214.595 71.6433ZM225.035 96.2353H220.035C220.035 104.232 217.222 111.051 211.57 116.728L215.114 120.256L218.657 123.784C226.175 116.232 230.035 106.876 230.035 96.2353H225.035ZM215.114 120.256L211.57 116.728C205.936 122.387 199.148 125.21 191.15 125.21V130.21V135.21C201.807 135.21 211.146 131.328 218.657 123.784L215.114 120.256ZM164.304 114.505V109.505C161.312 109.505 158.729 110.657 156.679 112.716L160.222 116.244L163.765 119.772C163.956 119.58 164.056 119.539 164.066 119.534C164.07 119.533 164.125 119.505 164.304 119.505V114.505ZM160.222 116.244L156.679 112.716C154.59 114.814 153.49 117.451 153.49 120.421H158.49H163.49C163.49 120.196 163.526 120.102 163.539 120.071C163.552 120.04 163.596 119.942 163.765 119.772L160.222 116.244ZM158.49 120.421H153.49V120.561H158.49H163.49V120.421H158.49ZM158.49 120.561H153.49C153.49 123.511 154.567 126.162 156.733 128.242L160.197 124.636L163.66 121.03C163.591 120.963 163.557 120.919 163.543 120.899C163.529 120.88 163.526 120.871 163.525 120.869C163.524 120.866 163.517 120.849 163.509 120.808C163.501 120.766 163.49 120.687 163.49 120.561H158.49ZM160.197 124.636L156.653 128.164C158.721 130.241 161.314 131.401 164.304 131.401V126.401V121.401C164.137 121.401 164.084 121.375 164.074 121.371C164.058 121.364 163.946 121.315 163.74 121.108L160.197 124.636ZM164.304 126.401V131.401H191.15V126.401V121.401H164.304V126.401ZM191.15 126.401V131.401C200.762 131.401 209.2 127.885 215.986 121.083L212.447 117.552L208.907 114.02C203.99 118.949 198.095 121.401 191.15 121.401V126.401ZM212.447 117.552L215.99 121.079C222.76 114.279 226.256 105.839 226.256 96.2353H221.256H216.256C216.256 103.187 213.812 109.093 208.903 114.024L212.447 117.552ZM221.256 96.2353H226.256C226.256 85.3959 222.05 76.2198 213.82 69.3426L210.614 73.1795L207.408 77.0163C213.308 81.9464 216.256 88.2847 216.256 96.2353H221.256ZM210.614 73.1795L213.823 69.3455L212.155 67.9489L208.946 71.7829L205.736 75.6169L207.405 77.0135L210.614 73.1795ZM208.946 71.7829L212.326 75.4672L213.931 73.9944L210.551 70.3102L207.171 66.626L205.565 68.0987L208.946 71.7829ZM210.551 70.3102L213.932 73.9932C221.019 67.4865 224.638 59.0795 224.638 49.3492H219.638H214.638C214.638 56.3522 212.14 62.0631 207.169 66.6272L210.551 70.3102ZM219.638 49.3492H224.638C224.638 40.1878 221.326 32.1251 214.865 25.6351L211.322 29.1627L207.778 32.6903C212.364 37.2966 214.638 42.8185 214.638 49.3492H219.638ZM211.322 29.1627L214.849 25.619C208.344 19.1438 200.303 15.8088 191.15 15.8088V20.8088V25.8088C197.643 25.8088 203.152 28.0854 207.794 32.7064L211.322 29.1627ZM191.15 20.8088V15.8088H164.304V20.8088V25.8088H191.15V20.8088ZM164.304 20.8088V15.8088C161.384 15.8088 158.801 16.8806 156.712 18.9121L160.197 22.4973L163.682 26.0825C163.865 25.9044 163.967 25.8607 163.992 25.8505C164.014 25.8412 164.095 25.8088 164.304 25.8088V20.8088ZM160.197 22.4973L156.653 18.9697C154.579 21.0536 153.49 23.6948 153.49 26.6489H158.49H163.49C163.49 26.4219 163.527 26.3238 163.54 26.2919C163.553 26.2605 163.593 26.1731 163.74 26.0249L160.197 22.4973ZM158.49 26.6489H153.49V26.7886H158.49H163.49V26.6489H158.49ZM158.49 26.7886H153.49C153.49 29.7672 154.596 32.4014 156.691 34.5058L160.235 30.9782L163.778 27.4506C163.598 27.2696 163.551 27.1655 163.538 27.1346C163.526 27.1052 163.49 27.0132 163.49 26.7886H158.49ZM160.235 30.9782L156.751 34.5654C158.82 36.5742 161.409 37.6287 164.304 37.6287V32.6287V27.6287C164.093 27.6287 164.005 27.5953 163.98 27.585C163.954 27.5745 163.869 27.5375 163.718 27.3911L160.235 30.9782ZM164.304 32.6287V37.6287H191.15V32.6287V27.6287H164.304V32.6287ZM191.15 32.6287V37.6287C194.396 37.6287 196.946 38.6965 199.296 41.0931L202.866 37.5928L206.437 34.0925C202.239 29.8111 197.13 27.6287 191.15 27.6287V32.6287ZM202.866 37.5928L199.323 41.1204C201.652 43.4598 202.72 46.0387 202.72 49.3492H207.72H212.72C212.72 43.3917 210.603 38.2768 206.41 34.0652L202.866 37.5928ZM207.72 49.3492H202.72C202.72 52.7123 201.642 55.3123 199.323 57.6415L202.866 61.1691L206.41 64.6967C210.613 60.4749 212.72 55.3304 212.72 49.3492H207.72ZM202.866 61.1691L199.343 57.621C197.016 59.9318 194.457 60.9809 191.15 60.9809V65.9809V70.9809C197.07 70.9809 202.17 68.9067 206.389 64.7173L202.866 61.1691ZM191.15 65.9809L191.134 60.9809L167.423 61.0571L167.439 66.0571L167.455 71.057L191.166 70.9809L191.15 65.9809ZM167.439 66.0571V61.0571C164.493 61.0571 161.876 62.1233 159.764 64.1545L163.23 67.7583L166.696 71.3621C166.878 71.187 166.99 71.134 167.039 71.1143C167.087 71.0949 167.198 71.0571 167.439 71.0571V66.0571ZM163.23 67.7583L159.626 64.2927C157.611 66.388 156.612 69.0207 156.612 71.8972H161.612H166.612C166.612 71.6298 166.654 71.5014 166.673 71.4536C166.69 71.4102 166.724 71.3381 166.834 71.224L163.23 67.7583ZM161.612 71.8972H156.612V72.0368H161.612H166.612V71.8972H161.612ZM161.612 72.0368H156.612C156.612 74.9399 157.64 77.5714 159.725 79.6652L163.268 76.1376L166.811 72.61C166.688 72.4865 166.665 72.4238 166.659 72.4104C166.652 72.3926 166.612 72.292 166.612 72.0368H161.612ZM163.268 76.1376L159.725 79.6652C161.813 81.7635 164.449 82.877 167.426 82.877V77.877V72.877C167.21 72.877 167.125 72.8424 167.101 72.8327C167.077 72.8224 166.981 72.7803 166.811 72.61L163.268 76.1376ZM167.426 77.877V82.877H191.15V77.877V72.877H167.426V77.877ZM191.15 77.877V82.877C194.899 82.877 197.846 84.0976 200.511 86.7749L204.054 83.2474L207.598 79.7198C203.059 75.1604 197.563 72.877 191.15 72.877V77.877ZM204.054 83.2474L200.486 86.7499C203.13 89.4435 204.35 92.4252 204.35 96.2226H209.35H214.35C214.35 89.8125 212.107 84.3133 207.623 79.7448L204.054 83.2474ZM209.35 96.2226H204.35C204.35 100.033 203.134 103.008 200.518 105.664L204.08 109.172L207.642 112.681C212.129 108.126 214.35 102.619 214.35 96.2226H209.35ZM204.08 109.172L200.561 105.62C197.872 108.283 194.917 109.492 191.15 109.492V114.492V119.492C197.545 119.492 203.032 117.248 207.598 112.725L204.08 109.172ZM191.15 114.492V109.492H164.304V114.492V119.492H191.15V114.492ZM164.304 114.492H159.304V114.505H164.304H169.304V114.492H164.304Z" fill="url(#paint7_linear_1336_11477)" mask="url(#path-3-inside-2_1336_11477)"/>
<mask id="path-5-inside-3_1336_11477" fill="white">
<path d="M48.0159 187.966L33.8304 216.989H26.8368L12.708 187.966V221.384H1V168.279H16.8419L30.3478 197.459L43.9528 168.279H59.7239V221.384H48.0159V187.966Z"/>
<path d="M115.149 178.545V221.384H103.441V178.545H88.5761V168.279H130.057V178.545H115.149Z"/>
<path d="M148.602 221.384H137.333V165H148.602V185.045C152 181.552 155.837 179.791 160.041 179.791C164.26 179.791 167.828 181.308 170.758 184.358C173.646 187.393 175.119 191.46 175.119 196.5V221.356H163.85V199.005C163.85 192.734 161.585 189.584 157.012 189.584C154.775 189.584 152.793 190.414 151.108 192.061C149.424 193.693 148.602 196.113 148.602 199.306V221.384Z"/>
<path d="M206.803 190.529C203.433 190.529 200.927 191.732 199.285 194.137C197.629 196.557 196.793 199.721 196.793 203.687V221.384H185.538V180.506H196.793V185.904C198.252 184.243 200.078 182.812 202.258 181.638C204.438 180.478 206.647 179.876 208.898 179.819L208.983 190.529H206.803Z"/>
<path d="M251.638 215.471C247.094 219.824 241.728 222 235.584 222C229.454 222 224.386 220.096 220.365 216.273C216.359 212.464 214.348 207.324 214.348 200.881C214.348 194.438 216.387 189.341 220.492 185.546C224.556 181.766 229.397 179.848 234.933 179.848C240.482 179.848 245.211 181.552 249.104 184.959C252.997 188.353 254.909 193.006 254.909 198.948V205.033H225.476C225.83 207.267 226.976 209.085 228.916 210.488C230.87 211.92 233.078 212.607 235.527 212.607C239.477 212.607 242.733 211.261 245.296 208.584L251.61 215.5L251.638 215.471ZM240.836 191.216C239.279 189.899 237.382 189.255 235.173 189.255C232.965 189.255 230.898 189.942 229.043 191.302C227.175 192.677 226.113 194.524 225.83 196.858H243.554C243.285 194.438 242.408 192.562 240.836 191.245V191.216Z"/>
<path d="M298.3 215.471C293.756 219.824 288.39 222 282.246 222C276.116 222 271.048 220.096 267.027 216.273C263.021 212.464 261.01 207.324 261.01 200.881C261.01 194.438 263.049 189.341 267.154 185.546C271.218 181.766 276.059 179.848 281.609 179.848C287.144 179.848 291.873 181.552 295.766 184.959C299.659 188.353 301.57 193.006 301.57 198.948V205.033H272.138C272.492 207.267 273.638 209.085 275.592 210.488C277.532 211.92 279.74 212.607 282.189 212.607C286.139 212.607 289.424 211.261 291.958 208.584L298.272 215.5L298.3 215.471ZM287.47 191.216C285.913 189.899 284.016 189.255 281.807 189.255C279.599 189.255 277.532 189.942 275.677 191.302C273.822 192.677 272.761 194.524 272.463 196.858H290.188C289.919 194.438 289.041 192.562 287.47 191.245V191.216Z"/>
<path d="M368.534 221.384L363.635 209.901H341.621L336.737 221.384H324.25L346.944 168.279H358.27L380.95 221.384H368.463H368.534ZM352.692 184.086L346.081 199.506H359.233L352.72 184.086H352.692Z"/>
<path d="M387.292 168.279H399V221.384H387.292V168.279Z"/>
</mask>
<path d="M48.0159 187.966L33.8304 216.989H26.8368L12.708 187.966V221.384H1V168.279H16.8419L30.3478 197.459L43.9528 168.279H59.7239V221.384H48.0159V187.966Z" stroke="url(#paint8_linear_1336_11477)" stroke-width="4" mask="url(#path-5-inside-3_1336_11477)"/>
<path d="M115.149 178.545V221.384H103.441V178.545H88.5761V168.279H130.057V178.545H115.149Z" stroke="url(#paint9_linear_1336_11477)" stroke-width="4" mask="url(#path-5-inside-3_1336_11477)"/>
<path d="M148.602 221.384H137.333V165H148.602V185.045C152 181.552 155.837 179.791 160.041 179.791C164.26 179.791 167.828 181.308 170.758 184.358C173.646 187.393 175.119 191.46 175.119 196.5V221.356H163.85V199.005C163.85 192.734 161.585 189.584 157.012 189.584C154.775 189.584 152.793 190.414 151.108 192.061C149.424 193.693 148.602 196.113 148.602 199.306V221.384Z" stroke="url(#paint10_linear_1336_11477)" stroke-width="4" mask="url(#path-5-inside-3_1336_11477)"/>
<path d="M206.803 190.529C203.433 190.529 200.927 191.732 199.285 194.137C197.629 196.557 196.793 199.721 196.793 203.687V221.384H185.538V180.506H196.793V185.904C198.252 184.243 200.078 182.812 202.258 181.638C204.438 180.478 206.647 179.876 208.898 179.819L208.983 190.529H206.803Z" stroke="url(#paint11_linear_1336_11477)" stroke-width="4" mask="url(#path-5-inside-3_1336_11477)"/>
<path d="M251.638 215.471C247.094 219.824 241.728 222 235.584 222C229.454 222 224.386 220.096 220.365 216.273C216.359 212.464 214.348 207.324 214.348 200.881C214.348 194.438 216.387 189.341 220.492 185.546C224.556 181.766 229.397 179.848 234.933 179.848C240.482 179.848 245.211 181.552 249.104 184.959C252.997 188.353 254.909 193.006 254.909 198.948V205.033H225.476C225.83 207.267 226.976 209.085 228.916 210.488C230.87 211.92 233.078 212.607 235.527 212.607C239.477 212.607 242.733 211.261 245.296 208.584L251.61 215.5L251.638 215.471ZM240.836 191.216C239.279 189.899 237.382 189.255 235.173 189.255C232.965 189.255 230.898 189.942 229.043 191.302C227.175 192.677 226.113 194.524 225.83 196.858H243.554C243.285 194.438 242.408 192.562 240.836 191.245V191.216Z" stroke="url(#paint12_linear_1336_11477)" stroke-width="4" mask="url(#path-5-inside-3_1336_11477)"/>
<path d="M298.3 215.471C293.756 219.824 288.39 222 282.246 222C276.116 222 271.048 220.096 267.027 216.273C263.021 212.464 261.01 207.324 261.01 200.881C261.01 194.438 263.049 189.341 267.154 185.546C271.218 181.766 276.059 179.848 281.609 179.848C287.144 179.848 291.873 181.552 295.766 184.959C299.659 188.353 301.57 193.006 301.57 198.948V205.033H272.138C272.492 207.267 273.638 209.085 275.592 210.488C277.532 211.92 279.74 212.607 282.189 212.607C286.139 212.607 289.424 211.261 291.958 208.584L298.272 215.5L298.3 215.471ZM287.47 191.216C285.913 189.899 284.016 189.255 281.807 189.255C279.599 189.255 277.532 189.942 275.677 191.302C273.822 192.677 272.761 194.524 272.463 196.858H290.188C289.919 194.438 289.041 192.562 287.47 191.245V191.216Z" stroke="url(#paint13_linear_1336_11477)" stroke-width="4" mask="url(#path-5-inside-3_1336_11477)"/>
<path d="M368.534 221.384L363.635 209.901H341.621L336.737 221.384H324.25L346.944 168.279H358.27L380.95 221.384H368.463H368.534ZM352.692 184.086L346.081 199.506H359.233L352.72 184.086H352.692Z" stroke="url(#paint14_linear_1336_11477)" stroke-width="4" mask="url(#path-5-inside-3_1336_11477)"/>
<path d="M387.292 168.279H399V221.384H387.292V168.279Z" stroke="url(#paint15_linear_1336_11477)" stroke-width="4" mask="url(#path-5-inside-3_1336_11477)"/>
<defs>
<linearGradient id="paint0_linear_1336_11477" x1="0" y1="86" x2="397" y2="86" gradientUnits="userSpaceOnUse">
<stop offset="0.192308" stop-color="#3853A3"/>
<stop offset="0.668269" stop-color="#55A5D9"/>
<stop offset="0.942308" stop-color="#57DDE6"/>
</linearGradient>
<linearGradient id="paint1_linear_1336_11477" x1="0" y1="86" x2="397" y2="86" gradientUnits="userSpaceOnUse">
<stop offset="0.192308" stop-color="#3853A3"/>
<stop offset="0.668269" stop-color="#55A5D9"/>
<stop offset="0.942308" stop-color="#57DDE6"/>
</linearGradient>
<linearGradient id="paint2_linear_1336_11477" x1="0" y1="86" x2="397" y2="86" gradientUnits="userSpaceOnUse">
<stop offset="0.192308" stop-color="#3853A3"/>
<stop offset="0.668269" stop-color="#55A5D9"/>
<stop offset="0.942308" stop-color="#57DDE6"/>
</linearGradient>
<linearGradient id="paint3_linear_1336_11477" x1="0" y1="86" x2="397" y2="86" gradientUnits="userSpaceOnUse">
<stop offset="0.192308" stop-color="#3853A3"/>
<stop offset="0.668269" stop-color="#55A5D9"/>
<stop offset="0.942308" stop-color="#57DDE6"/>
</linearGradient>
<linearGradient id="paint4_linear_1336_11477" x1="0" y1="86" x2="397" y2="86" gradientUnits="userSpaceOnUse">
<stop offset="0.192308" stop-color="#3853A3"/>
<stop offset="0.668269" stop-color="#55A5D9"/>
<stop offset="0.942308" stop-color="#57DDE6"/>
</linearGradient>
<linearGradient id="paint5_linear_1336_11477" x1="0" y1="86" x2="397" y2="86" gradientUnits="userSpaceOnUse">
<stop offset="0.192308" stop-color="#3853A3"/>
<stop offset="0.668269" stop-color="#55A5D9"/>
<stop offset="0.942308" stop-color="#57DDE6"/>
</linearGradient>
<linearGradient id="paint6_linear_1336_11477" x1="374.784" y1="28.3623" x2="397" y2="28.3623" gradientUnits="userSpaceOnUse">
<stop offset="0.192308" stop-color="#3853A3"/>
<stop offset="0.668269" stop-color="#55A5D9"/>
<stop offset="0.942308" stop-color="#57DDE6"/>
</linearGradient>
<linearGradient id="paint7_linear_1336_11477" x1="154.686" y1="73.6048" x2="225.035" y2="73.6048" gradientUnits="userSpaceOnUse">
<stop offset="0.192308" stop-color="#3853A3"/>
<stop offset="0.668269" stop-color="#55A5D9"/>
<stop offset="0.942308" stop-color="#57DDE6"/>
</linearGradient>
<linearGradient id="paint8_linear_1336_11477" x1="1" y1="193.5" x2="399" y2="193.5" gradientUnits="userSpaceOnUse">
<stop offset="0.192308" stop-color="#3853A3"/>
<stop offset="0.668269" stop-color="#55A5D9"/>
<stop offset="0.942308" stop-color="#57DDE6"/>
</linearGradient>
<linearGradient id="paint9_linear_1336_11477" x1="1" y1="193.5" x2="399" y2="193.5" gradientUnits="userSpaceOnUse">
<stop offset="0.192308" stop-color="#3853A3"/>
<stop offset="0.668269" stop-color="#55A5D9"/>
<stop offset="0.942308" stop-color="#57DDE6"/>
</linearGradient>
<linearGradient id="paint10_linear_1336_11477" x1="1" y1="193.5" x2="399" y2="193.5" gradientUnits="userSpaceOnUse">
<stop offset="0.192308" stop-color="#3853A3"/>
<stop offset="0.668269" stop-color="#55A5D9"/>
<stop offset="0.942308" stop-color="#57DDE6"/>
</linearGradient>
<linearGradient id="paint11_linear_1336_11477" x1="1" y1="193.5" x2="399" y2="193.5" gradientUnits="userSpaceOnUse">
<stop offset="0.192308" stop-color="#3853A3"/>
<stop offset="0.668269" stop-color="#55A5D9"/>
<stop offset="0.942308" stop-color="#57DDE6"/>
</linearGradient>
<linearGradient id="paint12_linear_1336_11477" x1="1" y1="193.5" x2="399" y2="193.5" gradientUnits="userSpaceOnUse">
<stop offset="0.192308" stop-color="#3853A3"/>
<stop offset="0.668269" stop-color="#55A5D9"/>
<stop offset="0.942308" stop-color="#57DDE6"/>
</linearGradient>
<linearGradient id="paint13_linear_1336_11477" x1="1" y1="193.5" x2="399" y2="193.5" gradientUnits="userSpaceOnUse">
<stop offset="0.192308" stop-color="#3853A3"/>
<stop offset="0.668269" stop-color="#55A5D9"/>
<stop offset="0.942308" stop-color="#57DDE6"/>
</linearGradient>
<linearGradient id="paint14_linear_1336_11477" x1="1" y1="193.5" x2="399" y2="193.5" gradientUnits="userSpaceOnUse">
<stop offset="0.192308" stop-color="#3853A3"/>
<stop offset="0.668269" stop-color="#55A5D9"/>
<stop offset="0.942308" stop-color="#57DDE6"/>
</linearGradient>
<linearGradient id="paint15_linear_1336_11477" x1="1" y1="193.5" x2="399" y2="193.5" gradientUnits="userSpaceOnUse">
<stop offset="0.192308" stop-color="#3853A3"/>
<stop offset="0.668269" stop-color="#55A5D9"/>
<stop offset="0.942308" stop-color="#57DDE6"/>
</linearGradient>
</defs>
</svg>
