<svg width="455" height="320" viewBox="0 0 455 320" fill="none" xmlns="http://www.w3.org/2000/svg">
<path d="M302.916 320C300.175 320 297.3 319.332 295.044 318.046L3.5932 149.879C1.30358 148.559 0 146.772 0 144.969C0 143.432 0.935905 142.046 2.62388 141.077L145.968 58.3715C149.561 56.3005 155.828 56.551 159.939 58.9226L451.407 227.09C453.68 228.409 455 230.196 455 232C455 233.536 454.064 234.923 452.376 235.891L309.032 318.597C307.395 319.549 305.205 320 302.916 320ZM152.084 58.2379C150.029 58.2379 148.073 58.6554 146.619 59.4905L3.27567 142.196C1.9888 142.931 1.28687 143.916 1.28687 144.985C1.28687 146.321 2.35647 147.691 4.22828 148.776L295.696 316.944C299.456 319.115 305.155 319.365 308.381 317.495L451.724 234.789C453.011 234.054 453.713 233.069 453.713 232C453.713 230.664 452.644 229.294 450.772 228.209L159.304 60.0416C157.249 58.8391 154.591 58.2379 152.084 58.2379Z" fill="#6DE0F6"/>
</svg>
