<svg width="24" height="24" viewBox="0 0 24 24" fill="none" xmlns="http://www.w3.org/2000/svg">
<path d="M6.78857 2.26703L8.21143 1.83846C8.85913 1.64305 9.55581 1.69003 10.1714 1.97062C10.787 2.25122 11.2795 2.74625 11.5569 3.36332L12.4423 5.33303C12.6809 5.86365 12.7473 6.45566 12.6323 7.02598C12.5174 7.5963 12.2267 8.11631 11.8011 8.51303L10.254 9.9556C10.2355 9.97399 10.2199 9.99509 10.2077 10.0182C10.0457 10.349 10.2917 11.2327 11.0623 12.5682C11.9314 14.0733 12.6026 14.6682 12.9137 14.5765L14.9443 13.955C15.5004 13.7852 16.0957 13.7937 16.6467 13.9792C17.1978 14.1647 17.677 14.518 18.0171 14.9896L19.2754 16.7322C19.6705 17.2793 19.8535 17.9513 19.7904 18.6232C19.7273 19.2951 19.4225 19.9212 18.9326 20.3853L17.85 21.4096C17.4735 21.7662 17.0164 22.0264 16.5176 22.1681C16.0188 22.3097 15.4931 22.3286 14.9854 22.223C11.9709 21.5956 9.27 19.1682 6.85971 14.9939C4.44857 10.817 3.69686 7.25989 4.66543 4.33446C4.82756 3.84469 5.1052 3.40115 5.47489 3.0413C5.84459 2.68146 6.29461 2.41589 6.78857 2.26703ZM7.16143 3.49789C6.86503 3.58716 6.59449 3.74647 6.37264 3.96234C6.1508 4.17822 5.98418 4.44432 5.88686 4.73817C5.052 7.25903 5.72828 10.4613 7.974 14.351C10.218 18.2382 12.6506 20.4239 15.2486 20.9639C15.5532 21.0271 15.8686 21.0157 16.1678 20.9306C16.4671 20.8455 16.7413 20.6893 16.9671 20.4753L18.0489 19.4519C18.3128 19.2021 18.477 18.8649 18.5111 18.5031C18.5451 18.1413 18.4467 17.7794 18.234 17.4847L16.9757 15.7413C16.7926 15.4874 16.5346 15.2972 16.238 15.1973C15.9413 15.0974 15.6208 15.0928 15.3214 15.1842L13.2857 15.8073C12.1594 16.1425 11.1 15.2039 9.94971 13.2102C8.97514 11.5233 8.63743 10.3045 9.054 9.45332C9.13514 9.2876 9.24314 9.1416 9.378 9.01532L10.9251 7.57274C11.1544 7.35913 11.311 7.07909 11.3729 6.77194C11.4349 6.46479 11.3991 6.14595 11.2706 5.86017L10.3843 3.89132C10.2349 3.55897 9.96971 3.29234 9.63816 3.14123C9.30661 2.99013 8.93139 2.96487 8.58257 3.07017L7.16143 3.49789Z" fill="black"/>
</svg>
