<svg width="234" height="192" viewBox="0 0 234 192" fill="none" xmlns="http://www.w3.org/2000/svg">
<g clip-path="url(#clip0_331_13040)">
<mask id="mask0_331_13040" style="mask-type:luminance" maskUnits="userSpaceOnUse" x="0" y="0" width="234" height="234">
<path d="M0 0H234V234H0V0Z" fill="white"/>
</mask>
<g mask="url(#mask0_331_13040)">
<path fill-rule="evenodd" clip-rule="evenodd" d="M52.4891 141.424C43.7662 139.264 36.018 134.245 30.4805 127.167C24.9431 120.09 21.9355 111.361 21.9375 102.375V98.7188C21.9375 88.0521 26.1748 77.8223 33.7173 70.2798C41.2598 62.7373 51.4896 58.5 62.1562 58.5H65.8125C76.2459 58.4906 86.2737 62.5405 93.7744 69.7927C101.275 77.045 105.66 86.9308 106.002 97.3586V97.4025H106.031V102.375C106.031 104.296 105.9 106.178 105.636 108.02C105.344 111.842 104.905 115.596 104.32 119.282C102.778 128.937 100.031 138.36 96.1447 147.332C89.1766 163.405 78.3087 177.485 64.5255 188.297L63.0923 189.408C62.4865 189.869 61.7474 190.121 60.9863 190.125C60.3569 190.123 59.7389 189.958 59.1919 189.647C58.6449 189.336 58.1875 188.888 57.8639 188.349C57.5403 187.809 57.3616 187.195 57.3449 186.566C57.3282 185.937 57.4742 185.314 57.7687 184.758C61.2395 178.157 64.4114 171.403 67.275 164.517C70.1561 157.584 73.0665 149.701 75.4211 141.438C72.2777 142.216 69.0506 142.604 65.8125 142.594H62.1562C58.812 142.584 55.5896 142.194 52.4891 141.424ZM44.46 161.972C31.6157 158.157 20.3479 150.294 12.3361 139.554C4.32419 128.815 -0.00279371 115.774 1.35328e-06 102.375V98.7188C1.35328e-06 82.2339 6.54859 66.4242 18.2051 54.7676C29.8617 43.1111 45.6714 36.5625 62.1562 36.5625H65.8125C87.048 36.5625 105.783 47.2095 117 63.4432C122.716 55.1508 130.361 48.3716 139.278 43.689C148.195 39.0064 158.116 36.5607 168.188 36.5625H171.844C188.113 36.5592 203.735 42.9348 215.356 54.3207C226.977 65.7066 233.671 81.1951 234 97.461V102.375C234 105.056 233.829 107.703 233.488 110.316C230.461 148.634 213.627 182.944 182.476 206.827C178.038 210.222 172.605 212.062 167.018 212.062C147.405 212.062 135.632 191.222 144.378 174.564C146.001 171.478 148.18 167.135 150.491 161.987C139.105 158.596 128.929 152.013 121.168 143.018C113.247 168.415 97.6162 190.717 76.4449 206.827C72.0066 210.222 66.5742 212.062 60.9863 212.062C41.3741 212.062 29.601 191.222 38.3467 174.564C39.9701 171.478 42.1493 167.135 44.46 161.987M158.535 141.424C161.635 142.194 164.858 142.584 168.202 142.594H171.858C175.096 142.59 178.321 142.202 181.467 141.438C178.802 150.754 175.478 159.869 171.522 168.714C169.134 174.147 166.564 179.498 163.815 184.758C163.52 185.314 163.374 185.937 163.391 186.566C163.407 187.195 163.586 187.809 163.91 188.349C164.233 188.888 164.691 189.336 165.238 189.647C165.785 189.958 166.403 190.123 167.032 190.125C167.793 190.121 168.532 189.869 169.138 189.408L170.571 188.297C174.978 184.806 179.034 181.062 182.739 177.065C191.372 167.786 198.259 157.025 203.068 145.299C206.492 136.937 208.936 128.206 210.351 119.282C210.957 115.549 211.401 111.791 211.682 108.02C211.945 106.168 212.077 104.286 212.077 102.375V97.4171H212.062V97.3586C211.721 86.9258 207.331 77.0356 199.824 69.7826C192.317 62.5295 182.282 58.483 171.844 58.5H168.173C157.506 58.5 147.276 62.7373 139.734 70.2798C132.191 77.8223 127.954 88.0521 127.954 98.7188V102.375C127.954 121.241 140.97 137.095 158.506 141.424" fill="white" fill-opacity="0.05"/>
</g>
</g>
<defs>
<clipPath id="clip0_331_13040">
<rect width="234" height="234" fill="white"/>
</clipPath>
</defs>
</svg>
