<svg width="18" height="18" viewBox="0 0 18 18" fill="none" xmlns="http://www.w3.org/2000/svg">
<path d="M13.5 4.5H6.21564C6.06645 4.5 5.92338 4.44074 5.81789 4.33525C5.7124 4.22976 5.65314 4.08668 5.65314 3.9375C5.65314 3.78832 5.7124 3.64524 5.81789 3.53975C5.92338 3.43426 6.06645 3.375 6.21564 3.375H14.0625C14.2117 3.375 14.3548 3.43426 14.4603 3.53975C14.5657 3.64524 14.625 3.78832 14.625 3.9375V11.8125C14.625 11.9617 14.5657 12.1048 14.4603 12.2102C14.3548 12.3157 14.2117 12.375 14.0625 12.375C13.9133 12.375 13.7703 12.3157 13.6648 12.2102C13.5593 12.1048 13.5 11.9617 13.5 11.8125V4.5Z" fill="black"/>
<path d="M13.6642 3.53923C13.7698 3.43361 13.9131 3.37427 14.0625 3.37427C14.2119 3.37427 14.3551 3.43361 14.4607 3.53923C14.5663 3.64485 14.6257 3.78811 14.6257 3.93748C14.6257 4.08685 14.5663 4.23011 14.4607 4.33573L4.89823 13.8982C4.84593 13.9505 4.78384 13.992 4.71551 14.0203C4.64718 14.0486 4.57394 14.0632 4.49998 14.0632C4.42602 14.0632 4.35278 14.0486 4.28445 14.0203C4.21611 13.992 4.15403 13.9505 4.10173 13.8982C4.04943 13.8459 4.00794 13.7838 3.97964 13.7155C3.95134 13.6472 3.93677 13.5739 3.93677 13.5C3.93677 13.426 3.95134 13.3528 3.97964 13.2844C4.00794 13.2161 4.04943 13.154 4.10173 13.1017L13.6642 3.53923Z" fill="black"/>
</svg>
