<svg width="16" height="16" viewBox="0 0 16 16" fill="none" xmlns="http://www.w3.org/2000/svg">
<path d="M12 4H5.52502C5.39242 4 5.26524 3.94732 5.17147 3.85355C5.0777 3.75979 5.02502 3.63261 5.02502 3.5C5.02502 3.36739 5.0777 3.24021 5.17147 3.14645C5.26524 3.05268 5.39242 3 5.52502 3H12.5C12.6326 3 12.7598 3.05268 12.8536 3.14645C12.9473 3.24021 13 3.36739 13 3.5V10.5C13 10.6326 12.9473 10.7598 12.8536 10.8536C12.7598 10.9473 12.6326 11 12.5 11C12.3674 11 12.2402 10.9473 12.1465 10.8536C12.0527 10.7598 12 10.6326 12 10.5V4Z" fill="url(#paint0_linear_1022_4427)"/>
<path d="M12.146 3.1459C12.2399 3.05201 12.3672 2.99927 12.5 2.99927C12.6328 2.99927 12.7601 3.05201 12.854 3.1459C12.9479 3.23979 13.0007 3.36712 13.0007 3.4999C13.0007 3.63267 12.9479 3.76001 12.854 3.8539L4.35402 12.3539C4.30753 12.4004 4.25234 12.4373 4.1916 12.4624C4.13087 12.4876 4.06577 12.5005 4.00002 12.5005C3.93428 12.5005 3.86918 12.4876 3.80844 12.4624C3.7477 12.4373 3.69251 12.4004 3.64602 12.3539C3.59953 12.3074 3.56266 12.2522 3.5375 12.1915C3.51234 12.1307 3.49939 12.0656 3.49939 11.9999C3.49939 11.9342 3.51234 11.8691 3.5375 11.8083C3.56266 11.7476 3.59953 11.6924 3.64602 11.6459L12.146 3.1459Z" fill="url(#paint1_linear_1022_4427)"/>
<defs>
<linearGradient id="paint0_linear_1022_4427" x1="5.02502" y1="7" x2="13" y2="7" gradientUnits="userSpaceOnUse">
<stop stop-color="#3853A3"/>
<stop offset="1" stop-color="#55A5D9"/>
</linearGradient>
<linearGradient id="paint1_linear_1022_4427" x1="3.49939" y1="7.7499" x2="13.0007" y2="7.7499" gradientUnits="userSpaceOnUse">
<stop stop-color="#3853A3"/>
<stop offset="1" stop-color="#55A5D9"/>
</linearGradient>
</defs>
</svg>
