<svg width="25" height="25" viewBox="0 0 25 25" fill="none" xmlns="http://www.w3.org/2000/svg">
<path d="M14.3687 2.75208C19.2437 3.68958 22.5562 7.91249 22.3896 12.9323C22.2365 17.5614 18.4917 21.5969 13.775 22.175C11.8808 22.4142 9.95771 22.1032 8.23541 21.2792C7.96 21.1593 7.6538 21.1294 7.36041 21.1937C5.94791 21.5323 4.54687 21.9167 3.14166 22.2823C2.9875 22.3219 2.82916 22.3489 2.60416 22.3958C3.02604 20.8521 3.41979 19.3708 3.84062 17.8958C3.94791 17.5229 3.91771 17.225 3.74583 16.8594C2.10521 13.375 2.24791 9.95624 4.48333 6.79687C6.72396 3.62812 9.88646 2.27603 13.775 2.67187C13.9583 2.68958 14.1406 2.71562 14.3687 2.75208ZM20.5292 14.2146C20.8083 13.0729 20.8417 11.9156 20.5687 10.7792C19.7479 7.35416 17.6167 5.13437 14.1521 4.43228C10.7531 3.74478 7.89896 4.89062 5.88541 7.70103C3.86875 10.5156 3.825 13.5344 5.48958 16.5583C5.70312 16.9469 5.76041 17.2667 5.63021 17.6812C5.39271 18.4396 5.20833 19.2146 4.97604 20.075C5.93958 19.825 6.78437 19.5854 7.64062 19.3979C7.88333 19.3448 8.20104 19.3729 8.41354 19.4896C13.3052 22.1823 19.1198 19.6979 20.5292 14.2146Z" fill="white"/>
<path d="M10.151 8.49802C10.3375 8.94281 10.4635 9.37302 10.6823 9.75115C10.9948 10.2907 10.9 10.7439 10.4688 11.1241C10.0052 11.5324 10.074 11.8793 10.4063 12.348C11.1719 13.4272 12.1333 14.2366 13.3469 14.7668C13.6802 14.9126 13.9333 14.9376 14.149 14.6032C14.2385 14.4657 14.3635 14.3532 14.4677 14.2241C15.075 13.4678 14.8844 13.4741 15.8469 13.8918C16.15 14.0241 16.4531 14.1647 16.7333 14.3376C17.0146 14.5095 17.4417 14.6866 17.4958 14.9314C17.6188 15.473 17.4458 16.023 16.9938 16.4251C16.1604 17.1668 15.2021 17.2897 14.1552 17.0001C11.8906 16.3751 10.149 15.0168 8.81459 13.1355C8.34375 12.472 7.92292 11.7355 7.65834 10.9709C7.3375 10.0397 7.56459 9.14177 8.22709 8.35323C8.61771 7.88969 9.09167 7.78552 9.6073 7.90948C9.81459 7.95948 9.95938 8.26781 10.151 8.49802Z" fill="white"/>
</svg>
